# xmcd CD database file
#
# Track frame offsets:
#	150
#	20302
#	40420
#
# Disc length: 634 seconds
#
# Revision: 0
# Processed by: cddbd v1.5.1PL0 Copyright (c) Steve Scherf et al.
# Submitted via: CDex 1.51
#
DISCID=1b027803
DTITLE=遠見真矢 - azul
DYEAR=2004
DGENRE=Anime
TTITLE0=azul
TTITLE1=azul (off vocal ver)
TTITLE2=azul INST Ver.
EXTD=YEAR: 2004
EXTT0=
EXTT1=
EXTT2=
PLAYORDER=
